<svg xmlns="http://www.w3.org/2000/svg" width="51" height="50" viewBox="0 0 51 50" version="1.1"><path d="M 14.989 8.411 C 10.347 11.130, 9.451 12.126, 9.183 14.865 C 8.959 17.148, 8.147 18.431, 6.433 19.213 C 4.185 20.237, 4 20.866, 4 27.500 C 4 34.187, 4.171 34.757, 6.500 35.818 C 8.304 36.640, 9 37.740, 9 39.768 C 9 42.139, 9.900 43.097, 14.750 45.893 C 20.034 48.938, 20.702 49.093, 23 47.804 C 25.146 46.600, 25.854 46.601, 28 47.809 C 30.300 49.104, 30.960 48.951, 36.250 45.898 C 41.062 43.120, 42 42.128, 42 39.815 C 42 37.756, 42.765 36.656, 45 35.500 C 47.863 34.020, 48 33.654, 48 27.500 C 48 21.346, 47.863 20.980, 45 19.500 C 42.615 18.267, 41.997 17.287, 41.983 14.724 C 41.968 11.827, 41.378 11.183, 36.157 8.372 C 31.010 5.600, 30.075 5.390, 27.946 6.529 C 25.983 7.580, 25.080 7.575, 23.010 6.505 C 20.727 5.324, 19.938 5.512, 14.989 8.411 M 15.250 10.566 C 12.105 12.451, 11 13.748, 11 15.557 C 11 17.017, 11.580 18, 12.441 18 C 14.379 18, 15.466 19.934, 14.226 21.174 C 13.559 21.841, 13.002 21.812, 12.554 21.087 C 11.521 19.415, 8.495 19.796, 6.655 21.829 C 4.266 24.468, 4.519 27.030, 7.140 26.738 C 8.317 26.607, 9.479 27.063, 9.723 27.750 C 10.004 28.542, 9.220 29, 7.583 29 C 4.200 29, 4.240 31.257, 7.671 33.956 C 9.502 35.396, 10.666 35.734, 11.371 35.029 C 12.849 33.551, 15 33.761, 15 35.383 C 15 36.144, 14.100 37.002, 13 37.290 C 9.444 38.220, 10.694 41.329, 15.751 44.133 C 22.393 47.815, 24.606 46.726, 24.817 39.673 C 25.046 32.003, 24.208 29, 21.837 29 C 20.677 29, 20.010 28.474, 20.253 27.750 C 20.483 27.063, 21.524 26.499, 22.566 26.498 C 24.231 26.496, 24.501 25.558, 24.812 18.700 C 25.321 7.477, 23.289 5.748, 15.250 10.566 M 27.433 9.109 C 27.056 9.719, 26.732 13.879, 26.713 18.354 C 26.683 25.574, 26.885 26.491, 28.503 26.495 C 29.507 26.498, 30.517 27.063, 30.747 27.750 C 30.994 28.484, 30.307 29, 29.083 29 C 26.765 29, 26.782 28.932, 26.823 37.959 C 26.863 46.791, 28.451 47.985, 35.152 44.222 C 38.703 42.227, 39.998 40.899, 39.999 39.250 C 40 37.666, 39.408 37, 38 37 C 36.889 37, 36 36.333, 36 35.500 C 36 33.821, 38.545 33.454, 39.498 34.996 C 39.885 35.624, 41.204 35.429, 43.057 34.471 C 46.492 32.694, 47.035 29.301, 43.960 28.820 C 41.365 28.413, 41.464 26.419, 44.063 26.738 C 47.240 27.129, 46.550 22.756, 43.114 20.726 C 40.530 19.200, 40.094 19.182, 38.956 20.553 C 38.148 21.526, 37.337 21.737, 36.730 21.130 C 35.526 19.926, 36.653 18, 38.559 18 C 39.423 18, 40 17.015, 40 15.542 C 40 13.700, 38.913 12.447, 35.662 10.542 C 30.971 7.793, 28.511 7.364, 27.433 9.109 M 16.419 14.132 C 16.034 14.754, 16.457 15.676, 17.360 16.181 C 19.758 17.524, 19.364 20.569, 16.500 22.821 C 12.920 25.638, 12.920 31.691, 16.500 32.589 C 18.554 33.105, 18.915 33.686, 18.522 35.851 C 18.259 37.300, 17.584 38.639, 17.022 38.826 C 15.624 39.292, 15.724 42, 17.140 42 C 19.019 42, 20.934 38.704, 20.968 35.411 C 20.992 33.069, 20.395 32.045, 18.500 31.182 C 16.974 30.487, 16 29.214, 16 27.915 C 16 26.745, 17.125 24.903, 18.500 23.821 C 21.279 21.635, 21.772 17.601, 19.608 14.750 C 18.058 12.708, 17.380 12.576, 16.419 14.132 M 32.200 14.200 C 30.183 16.217, 30.708 22.801, 33 24.232 C 34.100 24.919, 35 26.482, 35 27.705 C 35 28.929, 34.100 30.411, 33 31 C 29.882 32.669, 30.396 42, 33.607 42 C 34.373 42, 35 41.325, 35 40.500 C 35 39.675, 34.550 39, 34 39 C 33.450 39, 33 37.608, 33 35.906 C 33 33.654, 33.544 32.671, 35 32.290 C 36.538 31.887, 37 30.926, 37 28.124 C 37 25.564, 36.405 24.110, 35 23.232 C 32.779 21.845, 32.347 18.053, 34.200 16.200 C 35 15.400, 35.067 14.667, 34.400 14 C 33.733 13.333, 33 13.400, 32.200 14.200" stroke="none" fill="#b9738e" fill-rule="evenodd"/><path d="M -0 25.017 L -0 50.034 25.750 49.767 L 51.500 49.500 51.767 24.750 L 52.035 0 26.017 0 L 0 0 -0 25.017 M 0.434 25.500 C 0.433 39.250, 0.574 45.014, 0.747 38.308 C 0.919 31.603, 0.920 20.353, 0.748 13.308 C 0.576 6.264, 0.434 11.750, 0.434 25.500 M 14.989 8.411 C 10.347 11.130, 9.451 12.126, 9.183 14.865 C 8.959 17.148, 8.147 18.431, 6.433 19.213 C 4.185 20.237, 4 20.866, 4 27.500 C 4 34.187, 4.171 34.757, 6.500 35.818 C 8.304 36.640, 9 37.740, 9 39.768 C 9 42.139, 9.900 43.097, 14.750 45.893 C 20.034 48.938, 20.702 49.093, 23 47.804 C 25.146 46.600, 25.854 46.601, 28 47.809 C 30.300 49.104, 30.960 48.951, 36.250 45.898 C 41.062 43.120, 42 42.128, 42 39.815 C 42 37.756, 42.765 36.656, 45 35.500 C 47.863 34.020, 48 33.654, 48 27.500 C 48 21.346, 47.863 20.980, 45 19.500 C 42.615 18.267, 41.997 17.287, 41.983 14.724 C 41.968 11.827, 41.378 11.183, 36.157 8.372 C 31.010 5.600, 30.075 5.390, 27.946 6.529 C 25.983 7.580, 25.080 7.575, 23.010 6.505 C 20.727 5.324, 19.938 5.512, 14.989 8.411 M 15.250 10.566 C 12.105 12.451, 11 13.748, 11 15.557 C 11 17.017, 11.580 18, 12.441 18 C 14.379 18, 15.466 19.934, 14.226 21.174 C 13.559 21.841, 13.002 21.812, 12.554 21.087 C 11.521 19.415, 8.495 19.796, 6.655 21.829 C 4.266 24.468, 4.519 27.030, 7.140 26.738 C 8.317 26.607, 9.479 27.063, 9.723 27.750 C 10.004 28.542, 9.220 29, 7.583 29 C 4.200 29, 4.240 31.257, 7.671 33.956 C 9.502 35.396, 10.666 35.734, 11.371 35.029 C 12.849 33.551, 15 33.761, 15 35.383 C 15 36.144, 14.100 37.002, 13 37.290 C 9.444 38.220, 10.694 41.329, 15.751 44.133 C 22.393 47.815, 24.606 46.726, 24.817 39.673 C 25.046 32.003, 24.208 29, 21.837 29 C 20.677 29, 20.010 28.474, 20.253 27.750 C 20.483 27.063, 21.524 26.499, 22.566 26.498 C 24.231 26.496, 24.501 25.558, 24.812 18.700 C 25.321 7.477, 23.289 5.748, 15.250 10.566 M 27.433 9.109 C 27.056 9.719, 26.732 13.879, 26.713 18.354 C 26.683 25.574, 26.885 26.491, 28.503 26.495 C 29.507 26.498, 30.517 27.063, 30.747 27.750 C 30.994 28.484, 30.307 29, 29.083 29 C 26.765 29, 26.782 28.932, 26.823 37.959 C 26.863 46.791, 28.451 47.985, 35.152 44.222 C 38.703 42.227, 39.998 40.899, 39.999 39.250 C 40 37.666, 39.408 37, 38 37 C 36.889 37, 36 36.333, 36 35.500 C 36 33.821, 38.545 33.454, 39.498 34.996 C 39.885 35.624, 41.204 35.429, 43.057 34.471 C 46.492 32.694, 47.035 29.301, 43.960 28.820 C 41.365 28.413, 41.464 26.419, 44.063 26.738 C 47.240 27.129, 46.550 22.756, 43.114 20.726 C 40.530 19.200, 40.094 19.182, 38.956 20.553 C 38.148 21.526, 37.337 21.737, 36.730 21.130 C 35.526 19.926, 36.653 18, 38.559 18 C 39.423 18, 40 17.015, 40 15.542 C 40 13.700, 38.913 12.447, 35.662 10.542 C 30.971 7.793, 28.511 7.364, 27.433 9.109 M 16.419 14.132 C 16.034 14.754, 16.457 15.676, 17.360 16.181 C 19.758 17.524, 19.364 20.569, 16.500 22.821 C 12.920 25.638, 12.920 31.691, 16.500 32.589 C 18.554 33.105, 18.915 33.686, 18.522 35.851 C 18.259 37.300, 17.584 38.639, 17.022 38.826 C 15.624 39.292, 15.724 42, 17.140 42 C 19.019 42, 20.934 38.704, 20.968 35.411 C 20.992 33.069, 20.395 32.045, 18.500 31.182 C 16.974 30.487, 16 29.214, 16 27.915 C 16 26.745, 17.125 24.903, 18.500 23.821 C 21.279 21.635, 21.772 17.601, 19.608 14.750 C 18.058 12.708, 17.380 12.576, 16.419 14.132 M 32.200 14.200 C 30.183 16.217, 30.708 22.801, 33 24.232 C 34.100 24.919, 35 26.482, 35 27.705 C 35 28.929, 34.100 30.411, 33 31 C 29.882 32.669, 30.396 42, 33.607 42 C 34.373 42, 35 41.325, 35 40.500 C 35 39.675, 34.550 39, 34 39 C 33.450 39, 33 37.608, 33 35.906 C 33 33.654, 33.544 32.671, 35 32.290 C 36.538 31.887, 37 30.926, 37 28.124 C 37 25.564, 36.405 24.110, 35 23.232 C 32.779 21.845, 32.347 18.053, 34.200 16.200 C 35 15.400, 35.067 14.667, 34.400 14 C 33.733 13.333, 33 13.400, 32.200 14.200" stroke="none" fill="#faeeee" fill-rule="evenodd"/></svg>