<?xml version="1.0" standalone="no"?>
<!DOCTYPE svg PUBLIC "-//W3C//DTD SVG 20010904//EN"
 "http://www.w3.org/TR/2001/REC-SVG-20010904/DTD/svg10.dtd">
<svg version="1.0" xmlns="http://www.w3.org/2000/svg"
 width="51.000000pt" height="50.000000pt" viewBox="0 0 51.000000 50.000000"
 preserveAspectRatio="xMidYMid meet">

<g transform="translate(0.000000,50.000000) scale(0.100000,-0.100000)"
fill="#000000" stroke="none">
<path d="M188 433 c-10 -2 -18 -9 -18 -14 0 -6 -4 -8 -9 -4 -5 3 -16 -2 -24
-10 -9 -8 -20 -15 -26 -15 -6 0 -11 -4 -11 -10 0 -6 10 -5 25 2 14 6 25 15 25
20 0 5 4 7 8 4 4 -2 19 4 32 15 14 10 23 18 20 18 -3 -1 -13 -3 -22 -6z"/>
<path d="M285 430 c-3 -5 -1 -10 4 -10 6 0 11 5 11 10 0 6 -2 10 -4 10 -3 0
-8 -4 -11 -10z"/>
<path d="M310 426 c0 -2 7 -6 15 -10 8 -3 15 -1 15 4 0 6 -7 10 -15 10 -8 0
-15 -2 -15 -4z"/>
<path d="M350 411 c0 -5 5 -13 10 -16 6 -3 10 -2 10 4 0 5 -4 13 -10 16 -5 3
-10 2 -10 -4z"/>
<path d="M388 383 c7 -3 16 -2 19 1 4 3 -2 6 -13 5 -11 0 -14 -3 -6 -6z"/>
<path d="M160 350 c0 -5 10 -10 23 -10 18 0 19 2 7 10 -19 13 -30 13 -30 0z"/>
<path d="M251 344 c0 -11 3 -14 6 -6 3 7 2 16 -1 19 -3 4 -6 -2 -5 -13z"/>
<path d="M315 349 c-9 -14 -2 -20 14 -10 8 6 9 11 3 15 -6 3 -14 1 -17 -5z"/>
<path d="M80 305 c-11 -13 -10 -14 4 -9 9 3 16 10 16 15 0 13 -6 11 -20 -6z"/>
<path d="M110 311 c0 -5 5 -13 10 -16 6 -3 10 -2 10 4 0 5 -4 13 -10 16 -5 3
-10 2 -10 -4z"/>
<path d="M386 311 c-13 -5 -16 -10 -9 -14 7 -4 14 -3 18 3 4 6 11 8 16 5 5 -4
9 -1 9 4 0 12 -7 13 -34 2z"/>
<path d="M251 294 c0 -11 3 -14 6 -6 3 7 2 16 -1 19 -3 4 -6 -2 -5 -13z"/>
<path d="M310 291 c0 -4 11 -20 25 -35 15 -16 25 -21 25 -13 0 7 -11 23 -25
35 -14 12 -25 18 -25 13z"/>
<path d="M43 255 c0 -22 2 -30 4 -17 2 12 2 30 0 40 -3 9 -5 -1 -4 -23z"/>
<path d="M455 280 c3 -5 8 -10 11 -10 2 0 4 5 4 10 0 6 -5 10 -11 10 -5 0 -7
-4 -4 -10z"/>
<path d="M153 254 c-3 -7 -3 -19 0 -26 3 -7 6 -3 6 10 1 13 5 21 10 17 5 -3
12 -2 15 3 3 5 -2 9 -10 9 -9 0 -18 -6 -21 -13z"/>
<path d="M240 230 c-8 -5 -18 -6 -22 -4 -4 3 -8 1 -8 -4 0 -12 89 -12 97 1 4
6 -4 8 -20 5 -15 -3 -28 -1 -29 3 -2 5 -10 4 -18 -1z"/>
<path d="M64 218 c-3 -4 2 -8 10 -8 8 0 17 4 20 8 3 5 -2 9 -10 9 -8 0 -17 -4
-20 -9z"/>
<path d="M420 220 c0 -5 9 -10 19 -10 11 0 22 -8 24 -17 4 -14 5 -13 6 3 0 12
-6 25 -15 28 -23 9 -34 7 -34 -4z"/>
<path d="M342 200 c-15 -25 -15 -31 1 -24 7 2 13 13 14 24 2 25 1 25 -15 0z"/>
<path d="M150 191 c0 -5 7 -12 16 -15 14 -5 15 -4 4 9 -14 17 -20 19 -20 6z"/>
<path d="M251 184 c0 -11 3 -14 6 -6 3 7 2 16 -1 19 -3 4 -6 -2 -5 -13z"/>
<path d="M41 179 c0 -9 10 -24 24 -33 15 -10 25 -12 25 -5 0 6 -9 13 -19 16
-11 3 -22 12 -24 22 -4 15 -5 15 -6 0z"/>
<path d="M312 150 c-1 -41 8 -64 26 -67 17 -4 15 14 -2 24 -8 4 -16 24 -19 43
l-4 35 -1 -35z"/>
<path d="M449 153 c-13 -16 -12 -17 4 -4 16 13 21 21 13 21 -2 0 -10 -8 -17
-17z"/>
<path d="M140 150 c0 -5 -3 -9 -7 -9 -22 4 -33 -3 -33 -18 0 -11 3 -14 8 -7 4
6 15 13 25 17 15 6 25 27 12 27 -3 0 -5 -4 -5 -10z"/>
<path d="M366 148 c3 -5 10 -6 15 -3 13 9 11 12 -6 12 -8 0 -12 -4 -9 -9z"/>
<path d="M253 100 c0 -30 2 -43 4 -28 2 16 2 40 0 55 -2 16 -4 3 -4 -27z"/>
<path d="M396 125 c4 -8 7 -15 9 -15 2 0 5 7 9 15 3 9 0 15 -9 15 -9 0 -12 -6
-9 -15z"/>
<path d="M176 104 c-11 -7 -16 -17 -13 -21 4 -4 15 1 24 10 22 21 14 30 -11
11z"/>
<path d="M400 81 c0 -7 -4 -10 -8 -7 -5 3 -18 -3 -28 -12 -20 -19 -26 -22 -45
-22 -5 0 -7 -5 -4 -10 4 -7 20 -3 43 11 48 29 57 37 49 46 -4 3 -7 1 -7 -6z"/>
<path d="M110 71 c0 -9 24 -21 43 -21 6 0 2 7 -9 15 -22 17 -34 19 -34 6z"/>
<path d="M165 41 c-6 -11 40 -30 53 -22 7 4 0 11 -18 18 -17 6 -32 8 -35 4z"/>
<path d="M266 42 c-3 -5 1 -9 9 -9 8 0 12 4 9 9 -3 4 -7 8 -9 8 -2 0 -6 -4 -9
-8z"/>
</g>
</svg>
